<svg width="26" height="29" viewBox="0 0 26 29" fill="none" xmlns="http://www.w3.org/2000/svg">
<path d="M5.05655 29H20.9434C23.7317 29 26 26.7425 26 23.9674V8.92308C26 8.43231 25.5966 8.03077 25.1034 8.03077H19.7241V6.69231C19.7241 3.00262 16.7072 0 13 0C9.29276 0 6.27586 3.00262 6.27586 6.69231V8.03077H0.896552C0.403448 8.03077 0 8.43231 0 8.92308V23.9674C0 26.7425 2.26828 29 5.05655 29ZM8.06897 6.69231C8.06897 3.98415 10.279 1.78462 13 1.78462C15.721 1.78462 17.931 3.98415 17.931 6.69231V8.03077H8.06897V6.69231ZM1.7931 9.81538H6.27586V12.0462C6.27586 12.5369 6.67931 12.9385 7.17241 12.9385C7.66552 12.9385 8.06897 12.5369 8.06897 12.0462V9.81538H17.931V12.0462C17.931 12.5369 18.3345 12.9385 18.8276 12.9385C19.3207 12.9385 19.7241 12.5369 19.7241 12.0462V9.81538H24.2069V23.9674C24.2069 25.7565 22.741 27.2154 20.9434 27.2154H5.05655C3.25896 27.2154 1.7931 25.7565 1.7931 23.9674V9.81538Z" fill="#222222"/>
</svg>
