<svg width="181" height="56" viewBox="0 0 181 56" fill="none" xmlns="http://www.w3.org/2000/svg">
<path d="M9.83911 49.742C9.778 49.834 9.67614 50.0948 9.53355 50.5242C9.4928 50.6469 9.44188 50.7083 9.38076 50.7083L8.12796 51.5366L7.85295 50.9384C7.71036 50.877 7.55758 50.8003 7.39461 50.7083L6.26403 46.8431L5.98902 43.2999C6.02976 42.9932 6.05014 42.7171 6.05014 42.4717C6.05014 41.7661 5.87698 41.1832 5.53068 40.7231L3.51397 40.9532C3.4936 40.8611 3.45285 40.7844 3.39174 40.7231L1.13058 39.6648C1.11021 39.542 1.01854 39.358 0.855575 39.1126L1.34447 38.0082L1.10002 37.6401L1.52781 36.2597L2.75006 35.5694L5.59179 37.18C5.81587 36.9652 6.05014 36.5511 6.29459 35.9376C6.37607 35.232 6.41681 34.097 6.41681 32.5325C6.45755 32.3791 6.56959 31.9343 6.75293 31.198C6.7733 31.0753 6.81404 30.968 6.87515 30.8759L7.45572 24.986L7.51683 24.94C7.63906 24.9093 7.73073 24.802 7.79184 24.6179L8.18907 22.1331C8.12796 22.0104 8.11777 21.9184 8.15851 21.857L8.43352 21.5349C8.29093 20.3385 8.03629 19.6176 7.66962 19.3722C7.6085 19.4336 7.3335 19.6023 6.8446 19.8784C6.62052 20.0011 6.40662 20.0625 6.20292 20.0625L6.1418 20.8447C5.6529 20.9674 5.19456 21.2435 4.76677 21.673C4.56306 21.7957 4.30843 22.1178 4.00287 22.6393L4.24732 23.0994L4.27787 23.7436L3.9112 24.1118L3.17785 24.5719L1.58892 25.5382L0.702793 25.9523L0.152781 25.4002V25.3542C0.173152 25.2008 0.173152 25.0781 0.152781 24.986C0.152781 24.802 0.101854 24.6333 0 24.4799C0.142596 23.713 0.295377 22.9614 0.458344 22.2251C0.397231 22.1638 0.366675 22.0871 0.366675 21.9951L0.947243 21.4889L1.80282 19.7864C1.8843 19.7557 2.05745 19.6023 2.32227 19.3262L2.38339 18.774C2.64821 18.7434 3.04544 18.6513 3.57508 18.4979C4.34917 17.7617 5.46957 16.5653 6.93627 14.9088C6.93627 14.9088 7.03812 14.9241 7.24183 14.9548C7.48628 14.9855 7.65943 14.8935 7.76128 14.6787L8.8002 13.8965L9.62521 11.4577L10.7864 11.5957L11.6114 11.4577C12.1818 10.7828 12.5077 10.4454 12.5892 10.4454C12.7318 10.4454 12.8438 10.5374 12.9253 10.7214C12.8438 10.7214 12.7725 10.6908 12.7114 10.6294C12.5892 10.5374 12.5892 10.4914 12.7114 10.4914C12.9966 10.4914 13.3938 10.3227 13.9031 9.98521C14.555 9.55574 14.9522 9.31033 15.0948 9.24897C15.5429 9.27965 16.0522 9.09559 16.6226 8.6968C16.9689 8.45139 17.4272 8.20597 17.9976 7.96056C18.4458 7.50041 19.1995 7.04026 20.2588 6.58012C21.3384 6.08929 22.1023 5.61381 22.5505 5.15366L25.545 4.14133C25.6876 4.07998 25.8608 3.84991 26.0645 3.45111L29.059 2.11668C29.0997 2.05533 29.1507 1.9633 29.2118 1.84059C29.2729 1.84059 29.721 1.87127 30.5562 1.93262C31.0451 1.9633 31.5442 1.87127 32.0535 1.65654C32.2572 1.65654 32.5628 1.6412 32.9702 1.61052C33.398 1.57984 33.7035 1.5645 33.8869 1.5645C36.1277 1.53383 37.6045 2.39277 38.3175 4.14133V4.41742C38.2971 4.32539 38.2157 4.37141 38.0731 4.55547L37.9508 5.24569C37.9305 5.33772 37.8694 5.41441 37.7675 5.47576L37.1564 7.50041C36.9527 7.71515 36.6471 8.02191 36.2397 8.42071C35.9749 8.48206 35.6184 8.54341 35.1702 8.60477L35.2008 8.19064C35.2008 8.00658 35.1499 7.82252 35.048 7.63846C35.2517 7.33169 35.3536 6.96357 35.3536 6.5341C35.3536 6.07395 35.048 5.61381 34.4369 5.15366C34.0702 4.87757 33.6526 4.73953 33.1841 4.73953H32.9702L32.7563 4.78554H31.8702C31.6257 4.78554 31.3405 4.70885 31.0146 4.55547L28.1423 5.88989L26.7367 6.25802L26.4923 6.07395C26.3497 6.13531 26.2173 6.28869 26.095 6.5341L21.0838 9.47905L19.3727 9.93919L17.5698 11.5037C17.0402 11.473 16.8263 11.4577 16.9282 11.4577C16.8263 11.519 16.2152 11.9332 15.0948 12.7001C14.3614 13.1909 13.842 13.7584 13.5364 14.4026H13.4753C13.3327 14.372 13.2003 14.4486 13.0781 14.6327L10.8475 26.5505C10.8271 26.6119 10.8067 26.6426 10.7864 26.6426L10.6336 26.8726L10.1141 31.2901C10.0123 31.8116 9.80855 32.3484 9.50299 32.9006L9.5641 36.2597L10.3586 35.7535V35.7075C10.6438 35.9529 10.9493 36.0756 11.2753 36.0756C11.703 36.0142 12.3243 35.7995 13.1392 35.4314C13.6281 35.37 14.3512 35.0939 15.3087 34.6031C16.2865 34.0816 17.0402 33.8055 17.5698 33.7749C18.9143 33.1 20.8801 32.0263 23.4672 30.5538C23.6709 30.5231 23.9663 30.3698 24.3533 30.0937C24.7404 29.8176 25.0459 29.6795 25.27 29.6795C27.3275 28.4218 28.9877 27.7162 30.2507 27.5629L34.6508 25.7683C34.8545 26.0444 34.9869 26.3665 35.048 26.7346L34.8036 27.2868C34.7424 27.3174 34.6813 27.3328 34.6202 27.3328C34.5591 27.5168 34.3656 27.8083 34.0396 28.2071C33.8359 28.2071 33.6628 28.2377 33.5202 28.2991L31.1979 29.2654C30.3423 29.6335 29.6294 30.155 29.059 30.8299C28.9368 30.9219 28.7942 30.9833 28.6312 31.014H27.959C27.4497 31.4741 26.7062 31.9036 25.7284 32.3024C24.5876 32.7625 23.8339 33.1153 23.4672 33.3607C22.8153 34.0356 21.7866 34.6798 20.381 35.2933C18.8532 35.9376 17.8041 36.5051 17.2337 36.9959C16.9282 37.364 16.5411 37.5021 16.0726 37.41L14.2392 38.1923L9.778 39.8488L9.41132 41.1372L10.3891 43.2999L11.153 45.0485L10.8169 47.2112C10.8984 47.4259 10.9697 47.5946 11.0308 47.7173L11.1225 47.8554C11.1021 48.1315 11.1327 48.5916 11.2141 49.2358C11.0512 49.6346 10.8373 49.834 10.5725 49.834C10.0428 49.834 9.79837 49.8033 9.83911 49.742Z" fill="#222222"/>
<path d="M44.7821 33.8209C44.9247 33.054 44.9654 32.5938 44.9043 32.4404L45.3932 31.3361L45.6988 29.6335C45.6173 28.1917 45.22 27.1794 44.5071 26.5966C44.4663 26.4738 44.4256 26.3972 44.3848 26.3665L43.1626 26.8266C43.02 26.98 42.8672 27.0414 42.7043 27.0107L41.8792 28.115C41.7774 28.2071 41.6959 28.2531 41.6348 28.2531L40.2292 31.014C39.8422 31.5048 39.5773 31.9036 39.4347 32.2104C38.6403 33.8976 38.1819 34.9406 38.0597 35.3394L36.7763 39.4347C36.5523 40.9992 36.3587 42.1649 36.1958 42.9318C36.1754 43.1465 36.1652 43.3459 36.1652 43.53C36.1652 43.8368 36.1958 44.1282 36.2569 44.4043L36.3486 46.3829C36.4097 46.6283 36.5624 46.7204 36.8069 46.659C37.3569 46.5363 37.8967 46.2295 38.4264 45.7387C38.6912 45.4933 39.1394 44.9871 39.7709 44.2202L40.382 43.2079L40.932 42.3336C40.932 42.2109 41.0848 41.9655 41.3903 41.5974L41.757 40.7231C41.8385 40.7538 41.9098 40.7231 41.9709 40.6311C42.195 40.0482 42.5209 39.4654 42.9487 38.8825C43.3969 37.5941 43.7432 36.6891 43.9876 36.1676C44.0691 36.0756 44.1506 35.9989 44.2321 35.9376L44.7821 33.8209ZM51.5044 52.5029C51.1989 52.4722 50.9137 52.4415 50.6489 52.4109L49.5794 51.6286C48.9683 51.5059 48.6016 51.3372 48.4794 51.1224C47.9701 50.8157 47.4405 50.2021 46.8905 49.2818C46.1367 48.0241 45.6886 47.2879 45.546 47.0731L45.271 45.3706L44.8126 44.1742L44.5376 42.3336C44.5173 42.1802 44.5173 42.0422 44.5376 41.9195L44.5071 41.4593C44.4256 41.3059 44.3747 41.1679 44.3543 41.0452C44.2117 41.3213 44.0793 41.536 43.9571 41.6894C43.733 42.1189 43.5293 42.4717 43.3459 42.7477L42.8265 43.7601L42.4292 44.5883C42.2052 44.8031 42.0524 44.9718 41.9709 45.0945C41.7672 45.5546 41.5839 45.8614 41.4209 46.0148C41.4209 46.1682 41.319 46.2909 41.1153 46.3829L40.1986 47.7634L39.3431 48.9597C38.7727 49.2358 38.3347 49.4659 38.0291 49.65C37.0513 50.2328 36.0124 50.4015 34.9124 50.1561C34.3624 49.8494 33.9957 48.9444 33.8124 47.4412C33.7513 46.9504 33.7207 46.5056 33.7207 46.1068L33.8124 44.5883L34.4846 39.8948C34.4846 39.6801 34.5763 39.2046 34.7596 38.4684C35.0856 37.1186 35.4013 35.9529 35.7069 34.9712L36.3486 33.5448L36.9902 31.8883L37.9375 30.0477L39.0375 28.4832L40.0153 26.8726C40.1783 26.7193 40.3209 26.5659 40.4431 26.4125L41.1459 25.0781L42.307 23.9737C42.6533 23.8203 42.9181 23.6669 43.1015 23.5136C44.3034 23.2988 45.0571 23.1915 45.3626 23.1915H45.6988L46.0654 23.2375C46.6562 23.2988 47.2368 23.7283 47.8071 24.5259C47.9294 24.8327 47.9701 25.2775 47.9294 25.8603C47.9497 26.1671 47.9803 26.3972 48.021 26.5505L47.9599 27.4708V29.5875L47.8071 31.244C47.8886 31.6735 47.7766 32.5631 47.471 33.9129C47.5118 34.0663 47.5423 34.2043 47.5627 34.327L47.1349 36.1676C47.0534 36.2597 47.0025 36.4591 46.9821 36.7658C46.8803 38.3917 46.8293 39.2813 46.8293 39.4347C46.8293 39.6801 46.7988 40.0635 46.7377 40.585C46.6766 41.0759 46.646 41.444 46.646 41.6894L47.0432 44.0822L48.1433 46.705L49.7322 49.0058L51.535 50.5242L51.81 51.0764C51.81 51.3525 51.8304 51.5672 51.8711 51.7206C51.8507 51.874 51.7896 51.9814 51.6878 52.0427C51.5859 52.1961 51.5248 52.3495 51.5044 52.5029Z" fill="#222222"/>
<path d="M56.2198 50.4322C55.7716 50.9537 55.354 51.4599 54.967 51.9507L53.3475 53.5152C53.3475 53.5459 53.3068 53.6226 53.2253 53.7453L52.7669 53.9753H52.4002C52.3391 54.006 52.278 53.9753 52.2169 53.8833L52.1252 53.7913L52.0336 52.0427L52.4614 50.9844L53.6836 49.5579L53.8975 49.0978C54.142 48.9137 54.3151 48.7757 54.417 48.6837L55.5475 47.2572C55.9753 46.7357 56.2911 46.1989 56.4948 45.6467C57.0855 45.0945 57.4217 44.665 57.5031 44.3583L57.9615 43.8061C58.2263 43.2846 58.3587 43.1159 58.3587 43.2999L59.306 42.2876C59.3263 42.1649 59.3874 42.0268 59.4893 41.8735L60.3754 40.0329L57.6254 39.2046L56.6476 38.4684C56.1587 38.4684 55.8327 38.2843 55.6698 37.9162L53.7447 36.9959C53.6836 36.9039 53.6531 36.8272 53.6531 36.7658L52.4002 35.7995L52.0336 34.6952L51.5447 34.097L51.2086 32.9926L51.1169 31.4281L51.3919 29.7716L51.728 29.0813C52.0539 28.4065 52.3086 27.9463 52.4919 27.7009L54.3864 25.0781C54.529 25.0474 54.641 24.986 54.7225 24.894L55.3642 24.3418L56.1587 23.9277L56.8003 23.5136L57.2281 23.2835C57.5948 23.3142 57.9411 23.1608 58.267 22.8233L61.0782 21.903L63.3088 21.5809L63.5838 21.1208L64.0422 20.8447C64.7348 21.7036 65.0403 22.5779 64.9589 23.4675C64.6126 23.989 64.3783 24.4032 64.2561 24.7099C64.2153 24.7713 64.144 24.802 64.0422 24.802C63.9607 24.894 63.8996 24.986 63.8588 25.0781L62.7588 25.3542L61.506 25.1241C61.1801 25.0627 60.8236 25.032 60.4365 25.032L59.9782 25.2621C59.7949 25.2008 59.6624 25.2468 59.581 25.4002L58.0532 25.9984C58.0124 26.0597 57.8393 26.2131 57.5337 26.4585C57.3707 26.5812 57.2485 26.7039 57.167 26.8266C56.5559 27.0414 56.1383 27.3788 55.9142 27.839L55.5781 27.931L54.2336 29.8176L53.9892 30.6459C54.0299 30.7072 54.0299 30.9373 53.9892 31.3361L54.142 32.5325L54.9975 33.8669C56.1587 34.6031 56.8513 34.9712 57.0754 34.9712C59.3976 35.4927 60.518 35.7535 60.4365 35.7535L60.8949 35.7075L62.8505 36.2136C63.2579 36.6738 63.5431 37.0726 63.7061 37.41C63.7264 37.5327 63.7366 37.6708 63.7366 37.8242C63.7366 38.1003 63.6653 38.5451 63.5227 39.1586C63.3801 39.7414 63.2986 40.1556 63.2783 40.401C63.0134 40.9225 62.8301 41.3213 62.7283 41.5974L62.3005 42.2416C62.1579 42.5483 62.0356 42.7324 61.9338 42.7938L60.7421 44.2662C60.4162 44.8491 60.2634 45.2325 60.2838 45.4166C59.9171 45.8154 59.5911 46.1528 59.306 46.4289L58.6643 47.2572C58.7254 47.2879 58.542 47.5179 58.1143 47.9474L57.6254 48.6837L56.7392 49.88C56.5763 50.2482 56.4031 50.4322 56.2198 50.4322Z" fill="#222222"/>
<path d="M78.2397 31.06C78.3823 30.3851 78.4638 30.017 78.4842 29.9556L78.637 29.0813C78.7795 28.928 78.8509 28.5905 78.8509 28.069C78.8509 27.8236 78.7999 27.5475 78.6981 27.2408C78.5758 27.1794 78.2601 27.4708 77.7508 28.115C77.2008 28.6059 76.7628 29.158 76.4369 29.7716C75.8258 30.5385 75.4795 31.1674 75.398 31.6582C75.1535 31.8729 75.0109 32.011 74.9702 32.0723C74.685 32.8085 74.4202 33.1767 74.1757 33.1767L73.2896 34.9712C72.9637 35.2473 72.6683 35.6001 72.4035 36.0296C71.9757 37.1646 71.6294 37.9622 71.3646 38.4224C71.2831 38.5144 71.222 38.5757 71.1812 38.6064L70.8451 39.3427C70.8044 39.3427 70.7534 39.4347 70.6923 39.6187C70.6312 39.7721 70.5599 39.8488 70.4784 39.8488C70.1118 40.5544 69.7858 41.1986 69.5006 41.7814C69.1543 41.9962 68.8488 42.487 68.584 43.2539C68.258 44.1742 68.0339 44.711 67.9117 44.8644L67.6673 46.1989L67.3923 46.9351L66.9034 47.6253L66.5672 48.1775L65.7117 48.5916C65.6506 48.653 65.4468 48.6837 65.1005 48.6837C64.9172 48.6837 64.7033 48.5456 64.4589 48.2695C64.4181 48.1775 64.3978 48.0701 64.3978 47.9474L64.1533 47.4873C64.0718 47.0271 64.0413 46.7357 64.0616 46.613C64.082 46.5516 64.0922 46.1835 64.0922 45.5086C64.0922 45.2325 64.1635 44.9565 64.3061 44.6804C64.4487 44.0975 64.5403 43.7601 64.5811 43.668L65.3755 39.4807L66.0783 36.1676C66.2617 35.3087 66.3533 34.8025 66.3533 34.6491L67.6673 28.3911C67.6673 28.2377 67.7182 27.977 67.82 27.6089C67.9423 27.2101 68.0034 26.934 68.0034 26.7806C68.1256 26.2284 68.4414 24.9554 68.9506 22.9614C69.358 21.3662 69.6229 20.0778 69.7451 19.0961C70.3766 16.8261 70.7433 15.0008 70.8451 13.6204C71.1303 12.6387 71.2627 12.0405 71.2423 11.8258C71.3442 11.427 71.4053 11.1202 71.4257 10.9055L71.5173 9.80115L71.7007 9.11093L71.884 8.00657C72.1488 7.23966 72.2813 6.4114 72.2813 5.52178C72.2813 5.24569 72.2711 4.95426 72.2507 4.64749C72.434 3.23638 72.6174 2.37743 72.8007 2.07067L72.8618 1.51849L72.9229 0.460152C73.3507 0.153384 73.7276 0 74.0535 0C74.3387 0 74.5322 0.153384 74.6341 0.460152L75.3063 0.64421C75.4489 0.920298 75.5202 1.22706 75.5202 1.5645C75.5202 1.68721 75.4591 2.07067 75.3369 2.71487C75.2147 3.35908 75.1637 3.71186 75.1841 3.77322C75.1637 3.74254 75.1535 3.71186 75.1535 3.68118C75.1128 3.71186 75.0924 4.09532 75.0924 4.83156L74.7563 6.8562C74.7971 7.28568 74.7461 7.69981 74.6035 8.09861L74.4813 8.97288L73.8702 12.286C73.7887 12.378 73.7378 12.4547 73.7174 12.516L72.3118 19.3722C72.1285 19.8324 71.935 20.63 71.7312 21.765C71.5275 22.9 71.3136 23.713 71.0896 24.2038C70.1525 28.4371 69.633 30.8146 69.5312 31.3361C69.083 33.6368 68.7673 35.0939 68.584 35.7075C68.4821 36.7812 68.421 37.5327 68.4006 37.9622C68.421 38.4224 68.4719 38.6524 68.5534 38.6524C68.5941 38.6524 68.6553 38.6371 68.7367 38.6064L69.3784 37.5481C69.6229 37.18 69.7858 36.9345 69.8673 36.8118C69.9488 36.5664 70.0201 36.3977 70.0812 36.3057L70.3868 36.0296L71.1812 34.4651L71.5173 34.235L72.3118 32.5785L73.4118 31.014C73.5544 30.8299 73.6767 30.6305 73.7785 30.4158C73.9415 29.925 74.298 29.3114 74.848 28.5752C75.398 27.8083 75.7545 27.1641 75.9174 26.6426L77.5369 24.4339C77.7406 24.0351 77.9342 23.7283 78.1175 23.5136C78.9731 22.8387 79.4925 22.3632 79.6759 22.0871C79.737 21.9951 79.7981 21.9491 79.8592 21.9491L80.8064 22.1791L81.112 22.4092L81.8759 24.894C81.9167 25.2928 81.937 25.7376 81.937 26.2284C81.9778 27.977 81.8046 29.8176 81.4176 31.7502C80.8064 33.3147 80.3685 34.9559 80.1037 36.6738C80.0018 36.9192 79.8898 37.4254 79.7675 38.1923C79.6657 38.9285 79.5435 39.4347 79.4009 39.7108L78.8814 43.1159L78.637 46.2909C78.6981 46.4136 78.749 46.521 78.7897 46.613L78.912 48.4076V49.2818L79.187 50.2482L79.9509 51.5826C79.8083 51.92 79.7166 52.1348 79.6759 52.2268L77.9036 53.1931C77.5777 52.917 77.3841 52.7023 77.323 52.5489C77.099 52.1808 76.9156 51.9507 76.773 51.8587L76.4063 51.3065C76.1823 50.9691 76.0702 50.739 76.0702 50.6163L75.7647 48.0394C75.6424 47.8861 75.5813 47.6867 75.5813 47.4412C75.5813 47.1652 75.6526 46.8431 75.7952 46.4749C75.7137 46.1989 75.7239 45.754 75.8258 45.1405C75.8869 44.7417 75.9073 44.4963 75.8869 44.4043L76.0702 43.2539L76.1619 41.9655C76.223 41.6587 76.2638 41.398 76.2841 41.1832L76.7425 38.4684C76.8647 38.0696 76.9665 37.8088 77.048 37.6861C77.048 37.1646 77.1397 36.5051 77.323 35.7075C77.5879 34.5724 77.7305 33.9282 77.7508 33.7749C77.873 33.1 77.9851 32.5325 78.0869 32.0723C78.1888 31.8883 78.2397 31.5508 78.2397 31.06Z" fill="#222222"/>
<path d="M93.3149 10.0312L93.1316 10.7214L91.7871 12.424C91.7056 12.5774 91.614 12.7461 91.5121 12.9302C91.3491 12.9915 91.2066 13.0222 91.0843 13.0222L89.4343 11.1816L88.5787 9.29499L88.6093 7.96056L89.3732 7.22433L89.5871 6.67215L90.5038 6.44207L92.2149 7.31635L93.0705 9.70912C93.1723 9.8625 93.2538 9.96987 93.3149 10.0312ZM83.9647 38.1923L84.0258 38.2383L86.1342 31.5661C86.1546 31.4741 86.3685 30.8913 86.7759 29.8176L87.0815 28.6212C87.1222 28.4985 87.1629 28.3605 87.2037 28.2071L87.2648 27.977V27.931C87.713 27.072 87.8861 26.2744 87.7842 25.5382C87.8454 25.4155 87.8861 25.2468 87.9065 25.032C87.9268 24.9707 87.9676 24.9093 88.0287 24.848L88.212 24.0657C88.212 24.0351 88.2222 23.9737 88.2426 23.8817L88.2731 23.6056C88.3139 23.3295 88.3546 23.1761 88.3954 23.1454L89.2204 22.1791C89.3019 22.1791 89.5463 22.2251 89.9538 22.3172L90.351 22.0871L91.0232 22.5012L91.5121 24.6179L91.6649 24.848L91.451 25.4922L91.1454 25.9984L90.4426 27.839L89.5565 29.8176C89.4343 29.8789 89.3426 29.971 89.2815 30.0937C89.0982 30.9833 88.9658 31.5048 88.8843 31.6582L88.3037 32.9006C88.0593 33.4221 87.9167 33.8516 87.8759 34.189C86.5518 38.0849 85.8388 40.5544 85.737 41.5974L85.4009 43.2539L84.5453 46.9811L84.3314 49.834L83.9036 50.7543L83.4453 50.8463L82.6202 51.3525C82.3554 51.2298 82.2026 51.0151 82.1619 50.7083L81.7036 50.2021C81.6424 50.1101 81.5915 49.8954 81.5508 49.5579C81.6934 48.4843 81.785 47.6867 81.8258 47.1652L82.6814 43.3459C82.7221 43.1619 82.8443 42.7631 83.048 42.1496C83.0888 42.0268 83.1295 41.8581 83.1703 41.6434C83.1703 41.582 83.2008 41.5053 83.2619 41.4133L83.8425 38.5604C83.8629 38.407 83.9036 38.2843 83.9647 38.1923Z" fill="#222222"/>
<path d="M105.911 35.8915C105.931 35.6461 105.931 35.324 105.911 34.9252C105.891 34.4344 105.819 34.0509 105.697 33.7749L105.055 31.8883L104.78 30.8299C104.638 30.7379 104.516 30.5538 104.414 30.2777L102.886 29.0353C102.845 28.974 102.825 28.882 102.825 28.7592L101.114 28.2071C101.073 28.1457 100.961 28.115 100.777 28.115C100.513 28.115 100.105 28.1764 99.5552 28.2991C99.5145 28.3911 99.4635 28.4371 99.4024 28.4371C99.3413 28.4371 99.2802 28.4065 99.2191 28.3451C99.158 28.3758 98.995 28.3911 98.7302 28.3911C98.4857 28.6365 98.1191 29.0353 97.6302 29.5875L97.294 30.3698C97.2329 30.4618 97.0089 30.968 96.6218 31.8883C96.1125 33.0846 95.7968 34.0356 95.6746 34.7412C95.6746 34.9559 95.6644 35.0939 95.644 35.1553C95.3588 35.7075 95.1755 36.1523 95.094 36.4897C94.9718 37.2566 94.931 37.6708 94.9718 37.7321L94.5745 38.5604C94.5542 38.7445 94.3708 39.6494 94.0245 41.2753C94.2282 43.5453 94.8394 45.0178 95.8579 45.6927C97.0801 46.1528 97.732 46.3676 97.8135 46.3369C98.1802 46.3062 98.5876 46.1835 99.0358 45.9688L99.8302 45.7387L100.35 45.0945L101.45 44.3122L103.253 42.3796C103.456 41.7968 103.752 41.3826 104.139 41.1372L104.719 39.7108L105.086 38.6984L105.3 37.9162L105.697 36.7658C105.819 36.5204 105.891 36.229 105.911 35.8915ZM107.439 37.6861L106.95 39.5727L105.972 41.7354L105.575 42.5177C105.493 42.8551 105.371 43.1619 105.208 43.438L104.353 44.8644L103.344 45.9688C103.283 46.1835 103.212 46.3216 103.13 46.3829L102.305 47.1652L101.083 48.2695C101.002 48.4229 100.94 48.5303 100.9 48.5916C99.9015 49.1438 99.1682 49.5886 98.6996 49.9261C97.783 50.2021 97.1922 50.3402 96.9274 50.3402L95.8579 49.88L95.0023 49.6039L94.3912 49.2358C93.6579 49.0211 92.9856 48.2235 92.3745 46.8431C92.3337 46.5363 92.1606 45.8461 91.855 44.7724C91.6106 43.9134 91.4985 43.1926 91.5189 42.6097C91.4782 42.3029 91.4884 41.9348 91.5495 41.5053C91.631 40.9838 91.6208 40.6004 91.5189 40.355L93.0162 34.9252C93.0569 34.8639 93.118 34.7412 93.1995 34.5571C93.2199 34.4651 93.2606 34.3577 93.3217 34.235L93.5967 33.0846L93.7801 32.6245C94.493 31.2134 95.2671 29.3421 96.1023 27.0107C96.2449 26.9187 96.3264 26.842 96.3468 26.7806L97.1413 24.894C97.2635 24.8327 97.3552 24.7406 97.4163 24.6179C97.7218 23.7283 98.0783 23.1915 98.4857 23.0074C98.9339 22.6086 99.2598 22.3325 99.4635 22.1791H100.044C100.166 22.4859 100.411 22.8233 100.777 23.1915L100.991 23.6976L100.93 24.756L102.275 25.2161C102.336 25.1854 102.397 25.1701 102.458 25.1701L105.147 26.5505C105.371 27.1027 105.585 27.4248 105.789 27.5168C106.155 27.5168 106.441 27.8236 106.644 28.4371C107.031 28.7439 107.266 29.0353 107.347 29.3114L107.897 30.968C107.856 31.2134 107.867 31.5815 107.928 32.0723C107.948 32.195 107.989 32.4558 108.05 32.8546C108.091 33.1306 108.08 33.3147 108.019 33.4067C108.06 34.5418 108.07 35.1553 108.05 35.2473C108.009 35.4927 107.805 36.3057 107.439 37.6861Z" fill="#222222"/>
<path d="M108.802 47.6253C108.782 47.2572 108.802 46.9964 108.863 46.8431L108.955 46.1068C109.057 45.3399 109.097 44.9258 109.077 44.8644L109.26 44.1742L109.321 42.5177C109.382 42.1496 109.464 41.8121 109.566 41.5053L110.146 37.7321L110.483 35.4314L110.88 32.9006L111.246 32.0723L111.369 29.1274L111.552 28.069C111.552 27.5168 111.572 27.1181 111.613 26.8726L111.949 23.4215L112.591 23.3295C112.652 23.3295 112.774 23.2528 112.958 23.0994C113.141 22.9154 113.284 22.8233 113.385 22.8233C114.282 23.2835 114.934 24.0351 115.341 25.0781L115.31 25.5842C115.086 26.2284 114.944 26.5965 114.883 26.6886C114.76 27.2408 114.679 27.5935 114.638 27.7469C114.679 28.023 114.536 28.4678 114.21 29.0813C114.21 29.4495 114.119 30.0323 113.935 30.8299C113.772 31.6275 113.701 32.2257 113.721 32.6245C113.64 32.9006 113.579 33.054 113.538 33.0846L113.019 36.2597C113.08 36.6585 112.988 37.0419 112.744 37.41C112.744 38.269 112.601 39.3273 112.316 40.585C112.194 41.1372 112.143 41.628 112.163 42.0575L112.53 42.3336L114.76 39.8028L116.105 38.2383C116.186 38.0542 116.237 37.9162 116.258 37.8242L116.685 37.41C117.011 36.6738 117.358 36.229 117.724 36.0756C118.539 34.9712 119.222 34.0509 119.772 33.3147L120.047 32.9466C120.291 32.6705 120.454 32.4864 120.536 32.3944H120.719L122.033 31.198L124.936 29.7716C125.628 29.8636 126.015 29.9863 126.097 30.1397L126.708 30.6459C127.217 31.4128 127.553 32.0877 127.716 32.6705C127.798 32.9466 127.94 33.7442 128.144 35.0633C128.287 35.6768 128.348 36.6278 128.327 37.9162C128.307 39.2046 128.348 40.1249 128.45 40.6771L128.297 41.6434C128.358 41.8581 128.409 41.9962 128.45 42.0575C128.388 43.2846 128.348 44.0362 128.327 44.3122C128.511 46.1528 128.613 47.3799 128.633 47.9934L128.663 48.9597L128.908 50.9384L129.641 53.1471L130.13 53.7453L130.375 54.9877L130.069 55.5859C129.825 55.7393 129.641 55.8159 129.519 55.8159L129.397 55.954L127.319 55.4018C127.238 55.1257 127.176 54.9417 127.136 54.8496L126.525 52.6409L126.005 51.4445L125.944 49.88L125.7 47.9934L125.608 46.705C125.506 45.3553 125.455 44.665 125.455 44.6343C125.455 44.2969 125.486 43.9595 125.547 43.622C125.486 43.1926 125.486 42.5637 125.547 41.7354C125.608 40.9378 125.598 40.309 125.516 39.8488C125.231 37.1493 124.976 35.5541 124.752 35.0633C124.61 34.4191 124.274 34.097 123.744 34.097C123.174 34.3731 122.736 34.5418 122.43 34.6031C121.778 35.278 121.289 35.7382 120.963 35.9836L119.527 37.5481C119.486 37.7628 119.456 37.9162 119.436 38.0082L118.58 38.8365C117.969 39.4193 117.419 40.1709 116.93 41.0912C116.665 41.2139 116.309 41.6127 115.86 42.2876C115.433 42.9318 115.086 43.3153 114.822 43.438L114.638 43.9901L113.049 45.7847L111.949 47.1652L111.399 47.5333L110.452 48.6837L110.299 48.9137L109.505 48.7297L108.802 47.6253Z" fill="#222222"/>
<path d="M165.673 34.8332C165.388 34.8332 165.204 35.1246 165.123 35.7075C164.899 36.2597 164.746 36.6124 164.664 36.7658C164.481 37.0112 164.226 37.226 163.901 37.41C163.697 37.9009 163.31 38.4224 162.739 38.9745C162.067 39.5881 161.639 40.0482 161.456 40.355C161.171 40.6924 160.753 41.0912 160.203 41.5514C159.979 41.6434 159.786 41.8428 159.623 42.1496L159.5 42.3796C159.378 42.5637 159.246 42.6404 159.103 42.6097L158.614 43.2999L158.034 43.668C157.973 43.6067 157.82 43.7907 157.575 44.2202C157.331 44.619 157.188 44.8184 157.148 44.8184C157.066 45.0025 156.832 45.1712 156.445 45.3246L155.895 46.567C156.689 47.4873 157.087 48.5303 157.087 49.696C157.087 49.88 157.076 50.0948 157.056 50.3402C156.873 50.4015 156.496 50.8617 155.925 51.7206C155.844 51.7206 155.742 51.6439 155.62 51.4906L154.123 51.8587C154.021 52.0427 153.929 52.2421 153.848 52.4569C153.786 52.4875 153.705 52.5336 153.603 52.5949L152.075 50.6163C151.648 50.4936 151.108 50.9384 150.456 51.9507L145.75 56L144.497 55.0797L144.864 52.6409L147.553 51.0304L148.042 50.3862C148.225 50.2942 148.419 50.1561 148.622 49.9721L148.653 49.834L149.478 49.5119C149.865 48.6223 150.171 48.1621 150.395 48.1315L151.006 47.0731C151.128 47.0731 151.322 46.8431 151.586 46.3829C151.851 45.8921 151.994 45.5393 152.014 45.3246L151.77 42.1496L151.495 41.9195C151.23 41.9502 150.853 41.5974 150.364 40.8611L150.059 39.0666V38.6064C150.059 38.4224 150.048 38.2536 150.028 38.1003L150.059 38.0082C149.997 37.4867 149.957 36.9499 149.936 36.3977C149.957 36.3057 149.885 35.4927 149.722 33.9589C149.824 33.8055 149.875 33.6061 149.875 33.3607L149.661 31.7042L149.142 30.0016L148.897 27.6549C148.836 27.5629 148.755 27.4555 148.653 27.3328L148.378 22.8694L148.103 22.2712L148.225 21.1668L147.859 20.6146L148.042 19.2802C147.981 19.0655 147.909 18.8967 147.828 18.774L147.981 16.4733C148.062 16.3199 148.103 15.8138 148.103 14.9548C148.103 14.648 148.062 14.3106 147.981 13.9425C148.001 13.0222 148.225 11.5957 148.653 9.66311C149.142 7.4544 149.559 6.3347 149.906 6.30403C150.008 6.27335 150.14 6.19666 150.303 6.07395L151.159 4.69351C151.607 3.98795 152.35 3.34374 153.389 2.76089L155.895 1.38045L155.925 1.42646C156.19 1.61052 156.496 1.64119 156.842 1.51849C157.127 1.42646 157.321 1.38045 157.423 1.38045L159.164 1.47247L160.417 1.79458L161.762 2.43878L163.32 3.91126L164.267 4.32539L166.223 5.38373L167.567 6.94824C167.649 6.88688 167.74 6.84087 167.842 6.81019C168.128 7.36237 168.29 7.66913 168.331 7.73049C168.555 8.06793 168.779 8.25199 169.003 8.28266L170.256 9.84717C171.153 10.9515 171.652 12.5774 171.754 14.7247C171.978 14.8781 172.151 15.691 172.273 17.1635C172.253 17.5623 172.242 17.9764 172.242 18.4059C172.161 18.59 172.1 18.8047 172.059 19.0501C172.079 19.2342 172.12 19.4643 172.181 19.7403L172.09 21.719C172.13 21.811 172.11 22.0257 172.029 22.3632L171.906 22.9154L171.54 23.8357L171.112 25.9984L169.645 28.6672C169.564 28.7592 169.441 28.9433 169.278 29.2194L169.217 29.7716C168.973 29.8943 168.413 30.7225 167.537 32.2564L166.712 33.6828L165.703 34.8332H165.673ZM168.606 16.9334L168.362 16.2432C168.341 16.0898 168.362 15.8138 168.423 15.415L167.873 13.8505L166.865 11.6417C166.539 11.335 166.192 10.9362 165.826 10.4454C165.561 10.3227 164.471 9.5404 162.556 8.09861C161.415 7.23966 159.989 6.62613 158.278 6.25802L155.956 5.75185C154.836 6.212 154.255 6.45741 154.214 6.48809C153.562 6.76418 153.043 7.19365 152.656 7.7765L152.411 7.96056C152.33 8.45139 152.177 8.85018 151.953 9.15695L151.739 9.43304C151.617 9.58642 151.505 9.75514 151.403 9.93919V10.5834L151.006 11.4117C151.006 11.7491 151.128 12.1019 151.372 12.47L152.564 12.1939C152.585 12.1939 152.615 12.2246 152.656 12.286C152.9 12.8075 153.257 13.4056 153.725 14.0805C153.766 14.2032 153.807 14.3873 153.848 14.6327L153.359 19.0961L153.725 20.7527C153.42 22.0104 153.359 24.0964 153.542 27.0107C153.705 29.7102 153.542 31.6735 153.053 32.9006L153.603 36.0296L153.817 36.1216C153.817 36.2136 153.848 36.4897 153.909 36.9499C153.949 37.2566 153.949 37.6401 153.909 38.1003C153.97 38.223 154.092 38.9132 154.275 40.1709L155.039 42.7477C155.08 43.1465 155.172 43.3459 155.314 43.3459C155.416 43.3459 155.549 43.2386 155.711 43.0238L157.667 40.9532L159.164 39.4807C159.185 39.3273 159.297 39.1279 159.5 38.8825C159.623 38.8211 159.796 38.7291 160.02 38.6064C160.244 38.1769 160.509 37.8395 160.814 37.5941L160.998 36.7198C161.161 36.6278 161.354 36.5204 161.578 36.3977C161.639 36.183 161.711 35.9682 161.792 35.7535L163.259 34.235C163.442 33.7749 163.554 33.4988 163.595 33.4067C163.758 33.1307 163.941 32.9619 164.145 32.9006L165.856 29.9556C165.897 29.8329 165.978 29.6182 166.101 29.3114L166.987 27.1027L168.026 24.94L168.423 24.0197L168.881 23.1454V19.8324L168.606 18.2219V16.9334Z" fill="#222222"/>
<path d="M181 10.0312L180.817 10.7214L179.472 12.424C179.391 12.5774 179.299 12.7461 179.197 12.9302C179.034 12.9915 178.892 13.0222 178.769 13.0222L177.119 11.1816L176.264 9.29499L176.294 7.96056L177.058 7.22433L177.272 6.67215L178.189 6.44207L179.9 7.31635L180.756 9.70912C180.857 9.8625 180.939 9.96987 181 10.0312ZM171.65 38.1923L171.711 38.2383L173.819 31.5661C173.84 31.4741 174.054 30.8913 174.461 29.8176L174.767 28.6212C174.807 28.4985 174.848 28.3605 174.889 28.2071L174.95 27.977V27.931C175.398 27.072 175.571 26.2744 175.469 25.5382C175.53 25.4155 175.571 25.2468 175.592 25.032C175.612 24.9707 175.653 24.9093 175.714 24.848L175.897 24.0657C175.897 24.0351 175.907 23.9737 175.928 23.8817L175.958 23.6056C175.999 23.3295 176.04 23.1761 176.08 23.1454L176.905 22.1791C176.987 22.1791 177.231 22.2251 177.639 22.3172L178.036 22.0871L178.708 22.5012L179.197 24.6179L179.35 24.848L179.136 25.4922L178.83 25.9984L178.128 27.839L177.242 29.8176C177.119 29.8789 177.028 29.971 176.967 30.0937C176.783 30.9833 176.651 31.5048 176.569 31.6582L175.989 32.9006C175.744 33.4221 175.602 33.8516 175.561 34.189C174.237 38.0849 173.524 40.5544 173.422 41.5974L173.086 43.2539L172.23 46.9811L172.016 49.834L171.589 50.7543L171.13 50.8463L170.305 51.3525C170.04 51.2298 169.888 51.0151 169.847 50.7083L169.389 50.2021C169.327 50.1101 169.277 49.8954 169.236 49.5579C169.378 48.4843 169.47 47.6867 169.511 47.1652L170.366 43.3459C170.407 43.1619 170.529 42.7631 170.733 42.1496C170.774 42.0268 170.815 41.8581 170.855 41.6434C170.855 41.582 170.886 41.5053 170.947 41.4133L171.528 38.5604C171.548 38.407 171.589 38.2843 171.65 38.1923Z" fill="#222222"/>
</svg>
