<svg width="30" height="30" viewBox="0 0 30 30" fill="none" xmlns="http://www.w3.org/2000/svg">
<path d="M27.6823 26.1508L20.2886 18.757C21.7208 16.9879 22.5831 14.74 22.5831 12.2917C22.5831 6.61718 17.966 2 12.2915 2C6.61708 2 2 6.61713 2 12.2916C2 17.9661 6.61713 22.5833 12.2916 22.5833C14.7399 22.5833 16.9878 21.721 18.7568 20.2888L26.1505 27.6826C26.3617 27.8938 26.639 28 26.9164 28C27.1938 28 27.4711 27.8938 27.6823 27.6826C28.1059 27.259 28.1059 26.5743 27.6823 26.1508ZM12.2916 20.4166C7.81094 20.4166 4.16666 16.7723 4.16666 12.2916C4.16666 7.81095 7.81094 4.16663 12.2916 4.16663C16.7722 4.16663 20.4165 7.81095 20.4165 12.2916C20.4165 16.7723 16.7722 20.4166 12.2916 20.4166Z" fill="#222222"/>
</svg>
