<svg width="30" height="30" viewBox="0 0 30 30" fill="none" xmlns="http://www.w3.org/2000/svg">
<circle cx="15" cy="15" r="15" fill="#222222"/>
<path fill-rule="evenodd" clip-rule="evenodd" d="M7.09992 15.0269C11.3949 13.0512 14.2589 11.7487 15.6919 11.1194C19.7834 9.32254 20.6335 9.01042 21.1877 9.00011C21.3095 8.99784 21.5821 9.02973 21.7586 9.18096C21.9076 9.30866 21.9486 9.48116 21.9683 9.60223C21.9879 9.7233 22.0123 9.9991 21.9929 10.2146C21.7712 12.6743 20.8118 18.6433 20.3237 21.3983C20.1172 22.564 19.7105 22.9548 19.3169 22.9931C18.4613 23.0762 17.8116 22.3961 16.9829 21.8225C15.6862 20.9251 14.9537 20.3664 13.695 19.4907C12.2404 18.4786 13.1834 17.9223 14.0124 17.0132C14.2293 16.7753 17.999 13.1551 18.0719 12.8267C18.0811 12.7856 18.0895 12.6325 18.0034 12.5517C17.9172 12.4708 17.7901 12.4985 17.6983 12.5204C17.5683 12.5516 15.4968 13.9972 11.4839 16.8573C10.8959 17.2836 10.3633 17.4913 9.88616 17.4804C9.36012 17.4684 8.34822 17.1664 7.59598 16.9082C6.67333 16.5915 5.94002 16.4241 6.00388 15.8863C6.03714 15.6062 6.40248 15.3197 7.09992 15.0269Z" fill="white"/>
</svg>
