<svg width="30" height="30" viewBox="0 0 30 30" fill="none" xmlns="http://www.w3.org/2000/svg">
<path fill-rule="evenodd" clip-rule="evenodd" d="M15.0627 0C19.0584 0.00164062 22.8089 1.54983 25.6291 4.35975C28.4494 7.16953 30.0017 10.9043 30 14.8766C29.9969 23.0731 23.2954 29.7422 15.0629 29.7422H15.0566C12.5569 29.7414 10.1004 29.1172 7.91857 27.9327L0 30L2.11909 22.2967C0.81187 20.0423 0.124157 17.4847 0.125287 14.8647C0.128584 6.66853 6.82937 0 15.0627 0ZM21.8728 17.9779C21.4996 17.7919 19.6646 16.8936 19.3223 16.7695C18.9805 16.6455 18.7314 16.5838 18.4828 16.9555C18.2339 17.3272 17.5187 18.164 17.3009 18.4117C17.083 18.6597 16.8656 18.6908 16.4923 18.5047C16.4313 18.4744 16.3483 18.4386 16.2459 18.3944C15.7205 18.1676 14.6838 17.72 13.4907 16.6611C12.3813 15.6761 11.6323 14.4598 11.4145 14.0881C11.2197 13.7548 11.3723 13.5743 11.5253 13.3934C11.5431 13.3724 11.5609 13.3513 11.5782 13.33C11.9822 12.8307 12.3868 12.3072 12.5112 12.0594C12.6357 11.8115 12.5734 11.5945 12.4799 11.4087C12.4175 11.284 12.0612 10.4206 11.7394 9.64094C11.5815 9.25813 11.4318 8.89554 11.3294 8.65055C11.0616 8.01105 10.7905 8.01268 10.5729 8.01398C10.5441 8.01415 10.5163 8.01432 10.4895 8.013C10.2721 8.00217 10.0232 7.99997 9.77423 7.99997C9.52545 7.99997 9.12105 8.09278 8.77886 8.46488C8.7569 8.48876 8.73237 8.51481 8.7057 8.54314C8.31698 8.95601 7.47277 9.85268 7.47277 11.5636C7.47277 13.3814 8.79482 15.1378 8.99337 15.4016L8.9967 15.406C9.00889 15.4222 9.03073 15.4534 9.06195 15.498C9.50842 16.1353 11.8733 19.5109 15.3725 21.0146C16.263 21.3976 16.9581 21.626 17.5004 21.7972C18.3945 22.0799 19.2079 22.04 19.8511 21.9443C20.5683 21.8376 22.0592 21.0457 22.3704 20.1781C22.6814 19.3104 22.6814 18.5668 22.5879 18.4117C22.5131 18.2872 22.3376 18.2028 22.0778 18.0779C22.0144 18.0473 21.946 18.0144 21.8728 17.9779Z" fill="#222222"/>
</svg>
